<svg xmlns="http://www.w3.org/2000/svg" width="104" height="33" viewBox="0 0 104 33">
    <path fill="#1C1C1C" fill-rule="nonzero" d="M54.812 8.084c0 1.16-.943 2.093-2.112 2.093a2.098 2.098 0 0 1-2.112-2.093c0-1.16.91-2.094 2.112-2.094 1.202.032 2.112.966 2.112 2.094zm-8.707 4.219v.515s-1.008-1.288-3.152-1.288c-3.541 0-6.303 2.673-6.303 6.376 0 3.672 2.73 6.377 6.303 6.377 2.177 0 3.152-1.32 3.152-1.32v.547c0 .258.195.451.454.451h2.632v-12.11H46.56a.463.463 0 0 0-.454.452zm0 7.761c-.488.709-1.462 1.32-2.632 1.32-2.08 0-3.671-1.288-3.671-3.478 0-2.19 1.592-3.478 3.671-3.478 1.137 0 2.177.644 2.632 1.32v4.316zm5.035-8.212h3.12v12.11h-3.12v-12.11zm46.59-.322c-2.145 0-3.152 1.288-3.152 1.288V6.022H91.46v17.94h2.632c.26 0 .455-.226.455-.452v-.547s1.007 1.32 3.151 1.32c3.541 0 6.303-2.705 6.303-6.377 0-3.671-2.762-6.376-6.27-6.376zm-.52 9.822c-1.202 0-2.144-.611-2.632-1.32v-4.316c.488-.644 1.527-1.32 2.632-1.32 2.08 0 3.671 1.288 3.671 3.478 0 2.19-1.592 3.478-3.671 3.478zm-7.375-4.573v7.214h-3.12v-6.86c0-1.996-.649-2.801-2.403-2.801-.943 0-1.917.483-2.534 1.191v8.438h-3.12v-12.11h2.47c.26 0 .455.226.455.452v.515c.91-.934 2.111-1.288 3.313-1.288 1.365 0 2.502.386 3.412 1.16 1.104.9 1.527 2.06 1.527 4.09zm-18.746-5.25c-2.145 0-3.152 1.289-3.152 1.289V6.022h-3.119v17.94h2.632c.26 0 .455-.226.455-.452v-.547s1.007 1.32 3.151 1.32c3.541 0 6.303-2.705 6.303-6.377.033-3.671-2.73-6.376-6.27-6.376zm-.52 9.823c-1.202 0-2.144-.611-2.632-1.32v-4.316c.488-.644 1.527-1.32 2.632-1.32 2.08 0 3.671 1.288 3.671 3.478 0 2.19-1.592 3.478-3.671 3.478zm-8.447-9.822c.942 0 1.43.16 1.43.16v2.867s-2.6-.87-4.224.966v8.47h-3.12V11.852h2.632c.26 0 .455.225.455.45v.516c.585-.676 1.852-1.288 2.827-1.288zM29.73 22.866c-.162-.386-.325-.805-.487-1.16-.26-.579-.52-1.127-.747-1.642l-.033-.032a334.925 334.925 0 0 0-7.18-14.557l-.097-.193c-.26-.483-.52-.999-.78-1.514-.325-.58-.65-1.192-1.17-1.771C18.196.709 16.702 0 15.11 0c-1.624 0-3.086.709-4.158 1.932-.488.58-.845 1.192-1.17 1.772-.26.515-.52 1.03-.78 1.513l-.097.194c-2.502 4.83-4.939 9.726-7.18 14.557l-.033.064c-.227.515-.487 1.063-.747 1.642-.163.355-.325.741-.487 1.16-.423 1.192-.553 2.319-.39 3.478a6.855 6.855 0 0 0 4.223 5.346 6.723 6.723 0 0 0 2.632.516c.26 0 .585-.033.845-.065a8.635 8.635 0 0 0 3.248-1.095c1.333-.74 2.6-1.803 4.03-3.35 1.429 1.547 2.728 2.61 4.028 3.35a8.635 8.635 0 0 0 4.093 1.16c.91 0 1.82-.161 2.632-.516 2.274-.901 3.866-2.963 4.224-5.346.26-1.127.13-2.254-.293-3.446zm-14.652 1.675c-1.755-2.19-2.892-4.251-3.282-5.99-.162-.741-.195-1.385-.097-1.965.065-.515.26-.966.52-1.353.617-.87 1.657-1.417 2.859-1.417s2.274.516 2.859 1.417c.26.387.454.838.52 1.353.097.58.064 1.256-.098 1.965-.39 1.706-1.527 3.768-3.281 5.99zm12.963 1.513c-.228 1.675-1.365 3.124-2.957 3.769a4.959 4.959 0 0 1-2.469.322c-.812-.097-1.624-.355-2.47-.838-1.169-.644-2.338-1.642-3.703-3.124 2.144-2.608 3.444-4.992 3.931-7.117.228-.999.26-1.9.163-2.738a5.2 5.2 0 0 0-.877-2.19c-1.008-1.449-2.697-2.286-4.581-2.286-1.885 0-3.574.87-4.581 2.286a5.2 5.2 0 0 0-.878 2.19 6.63 6.63 0 0 0 .163 2.738c.487 2.125 1.82 4.54 3.931 7.15-1.332 1.481-2.534 2.48-3.704 3.123-.844.484-1.657.741-2.469.838a5.239 5.239 0 0 1-2.469-.322c-1.592-.644-2.73-2.094-2.957-3.768a5.288 5.288 0 0 1 .293-2.512c.097-.322.26-.644.422-1.031a65.99 65.99 0 0 1 .747-1.61l.033-.065a350.787 350.787 0 0 1 7.148-14.46l.097-.193c.26-.483.52-.999.78-1.482.26-.515.552-.998.91-1.417.682-.773 1.591-1.191 2.599-1.191 1.007 0 1.916.418 2.599 1.191.357.419.65.902.91 1.417.26.483.52.999.78 1.482l.097.193a425.636 425.636 0 0 1 7.115 14.493v.032c.26.515.487 1.095.747 1.61.162.387.325.709.422 1.03.26.838.358 1.643.228 2.48z" opacity=".15"/>
</svg>
