<svg xmlns="http://www.w3.org/2000/svg" width="124" height="24" viewBox="0 0 124 24">
    <g fill="#1C1C1C" fill-rule="nonzero">
        <path d="M14.39 4.5L7.195 9l7.195 4.5L7.195 18 0 13.463l7.195-4.5L0 4.5 7.195 0l7.195 4.5zM7.157 19.425l7.195-4.5 7.195 4.5-7.195 4.5-7.195-4.5zm7.233-5.963l7.195-4.5L14.39 4.5 21.547 0l7.195 4.5L21.547 9l7.195 4.5-7.195 4.5-7.157-4.537zM34.368 4.5h5.817c3.713 0 6.774 2.1 6.774 6.9v1.012c0 4.838-2.87 7.013-6.659 7.013h-5.932V4.5zm3.253 2.7v9.488h2.488c2.105 0 3.52-1.35 3.52-4.35v-.788c0-3-1.492-4.35-3.635-4.35H37.62zm11.06.15h2.603l.42 2.813c.498-1.913 1.761-2.926 4.058-2.926h.803v3.226h-1.34c-2.64 0-3.29.9-3.29 3.45v5.55H48.72V7.35h-.039zm8.535 6.3v-.338c0-4.05 2.64-6.262 6.238-6.262 3.674 0 6.239 2.212 6.239 6.263v.337c0 3.975-2.488 6.112-6.239 6.112-3.98-.037-6.238-2.137-6.238-6.112zm9.185-.037v-.3c0-2.25-1.148-3.6-2.985-3.6-1.799 0-2.985 1.237-2.985 3.6v.3c0 2.175 1.148 3.412 2.985 3.412 1.837-.037 2.985-1.237 2.985-3.412zm4.976-6.263h2.679l.306 2.287c.65-1.537 2.028-2.587 4.057-2.587 3.138 0 5.204 2.212 5.204 6.3v.338c0 3.975-2.296 6.074-5.204 6.074-1.952 0-3.292-.862-3.942-2.25v6.113h-3.139l.039-16.275zm8.993 6.263v-.263c0-2.4-1.263-3.6-2.947-3.6-1.798 0-2.985 1.35-2.985 3.6v.225c0 2.138 1.148 3.488 2.947 3.488 1.837-.038 2.985-1.2 2.985-3.45zm8 3.6l-.269 2.212h-2.755V3.3h3.138v6.188c.689-1.575 2.067-2.438 4.018-2.438 2.947.038 5.129 2.025 5.129 6.038v.375c0 4.012-2.067 6.3-5.205 6.3-2.067-.038-3.406-.976-4.057-2.55zm5.97-3.75v-.3c0-2.213-1.225-3.45-2.947-3.45-1.76 0-2.986 1.387-2.986 3.487v.263c0 2.25 1.187 3.562 2.947 3.562 1.876 0 2.986-1.162 2.986-3.562zm4.669.187v-.338c0-4.05 2.64-6.262 6.238-6.262 3.674 0 6.238 2.212 6.238 6.263v.337c0 3.975-2.526 6.112-6.238 6.112-3.98-.037-6.238-2.137-6.238-6.112zm9.223-.037v-.3c0-2.25-1.148-3.6-2.985-3.6-1.799 0-2.985 1.237-2.985 3.6v.3c0 2.175 1.148 3.412 2.985 3.412 1.837-.037 2.985-1.237 2.985-3.412zm7.463-.45L111.37 7.35h3.713l2.487 3.638 2.526-3.638h3.674l-4.4 5.775 4.63 6.3h-3.636l-2.832-4.013-2.755 4.013h-3.79l4.708-6.263z"/>
    </g>
</svg>
