<svg xmlns="http://www.w3.org/2000/svg" width="38" height="38" viewBox="0 0 38 38">
    <g fill="none" fill-rule="nonzero" opacity=".15">
        <path fill="#1C1C1C" d="M34.555 0H3.445A3.445 3.445 0 0 0 0 3.445v31.11A3.445 3.445 0 0 0 3.445 38h31.11A3.445 3.445 0 0 0 38 34.555V3.445A3.445 3.445 0 0 0 34.555 0"/>
        <path fill="#FFF" d="M12.8 11.686c1.254 0 2.305-1 2.305-2.309a2.297 2.297 0 0 0-2.306-2.307 2.296 2.296 0 0 0-2.305 2.307c0 1.31 1.05 2.309 2.305 2.309m-4.78 12.36a8.05 8.05 0 0 0-.203 1.735c0 2.032 1.084 3.382 3.39 3.382 1.912 0 3.462-1.154 4.578-3.017l-.682 2.78H18.9l2.17-8.844c.543-2.24 1.594-3.402 3.187-3.402 1.255 0 2.034.793 2.034 2.102 0 .379-.034.792-.17 1.24l-1.118 4.065a6.202 6.202 0 0 0-.237 1.722c0 1.93 1.118 3.341 3.458 3.341 2 0 3.593-1.308 4.475-4.443l-1.492-.585c-.746 2.1-1.39 2.48-1.899 2.48-.508 0-.78-.344-.78-1.033 0-.31.069-.654.17-1.068l1.085-3.96c.271-.93.373-1.755.373-2.513 0-2.962-1.763-4.508-3.899-4.508-2 0-4.034 1.833-5.051 3.762l.746-3.463h-5.797l-.814 3.05h2.712l-1.67 6.795c-1.312 2.963-3.72 3.01-4.023 2.942-.497-.114-.814-.306-.814-.961 0-.378.068-.922.237-1.577l2.543-10.249H7.884l-.814 3.05h2.678l-1.729 7.178"/>
    </g>
</svg>
