<svg xmlns="http://www.w3.org/2000/svg" width="70" height="25" viewBox="0 0 70 25">
    <path fill="#1C1C1C" fill-rule="nonzero" d="M7.722 24.99c-2.086-.083-3.793-.655-5.127-1.717a10.25 10.25 0 0 1-1.065-1.068C.99 21.523.621 20.859.376 20.123c-.755-2.266-.367-5.24 1.111-8.503 1.266-2.794 3.218-5.566 6.625-9.404C8.613 1.652 10.108 0 10.117 0c.004 0-.078.141-.18.314C9.05 1.8 8.293 3.55 7.88 5.067c-.663 2.433-.583 4.52.235 6.14.564 1.115 1.53 2.08 2.618 2.614 1.903.935 4.69 1.012 8.092.227.234-.055 11.844-3.143 25.799-6.863C58.579 3.464 69.998.422 70 .425c.004.003-32.421 13.907-49.254 21.12-2.666 1.143-3.378 1.431-4.632 1.872-3.203 1.127-6.073 1.665-8.392 1.573z" opacity=".15"/>
</svg>
