<svg xmlns="http://www.w3.org/2000/svg" width="67" height="30" viewBox="0 0 67 30">
    <g fill="#1C1C1C" fill-rule="nonzero" opacity=".15">
        <path d="M18.411 2.838c1.346 0 5.074.18 2.66 7.227-2.505 7.394-8.087 5.878-8.087 5.878L17.09 2.838h1.321zm9.99 7.694C31.54 2.778 25.641.656 21.816.656H9.15c1.05.732.875 1.702.678 2.278L2.437 26.6c-.292.95-1.412 1.912-1.996 2.085h10.265c-.58-.114-1.378-.92-1.077-2.009l2.68-8.561s12.345 1.671 16.091-7.582z"/>
        <path d="M32.542 25.045c-.405.25-2.008 1.066-3.508 1.203-1.408.124-3.72-.408-3.72-3.197 0-2.41 2.61-4.13 3.992-4.753.626 2.313 1.874 4.945 3.236 6.747m4.044-15.071c-.342 2.263-3.245 4.541-3.96 4.832-.13-1.265-.084-3.272.967-4.898.725-1.08 1.644-1.55 2.387-1.288.606.208.679.753.606 1.354m0 18.71h6.929c-2.212-.728-5.484-2.82-6.794-4.304 1.065-1.137 2.355-2.588 2.597-5.532h-3.587s.713.38.713 1.228c0 .788-.318 1.858-.924 2.62-1.042-1.558-2.179-3.337-2.577-5.951 1.405-.699 3.394-1.454 4.947-2.82 1.503-1.321 1.84-2.532 1.86-3.346v-.106c0-.843-.312-1.614-.938-2.224-1.026-1.032-2.67-1.438-4.385-1.139-1.398.27-2.557 1-3.126 1.541-2.123 1.953-2.386 5.202-2.386 6.662 0 .326.024.62.031.776-.1.031-.34.133-.34.133-1.501.553-5.567 1.642-7.025 4.991-.183.413-.449 1.346-.449 2.423 0 .906.182 1.93.772 2.88 1.043 1.6 2.765 2.595 5.556 2.553 3.023-.038 6.012-2.115 6.527-2.493.533.5 1.91 1.768 2.6 2.108"/>
        <path d="M57.583 2.859c4.115-.983 7.505 2.244 7.82 2.443l1.153-3.719c-1.614-.49-13.388-4.492-21.712 5.032-5.114 5.86-6.398 17.847.113 21.058 6.952 3.448 14.64-.523 15.179-.793l3.194-10.105c.338-1.244 1.102-2.042 2.477-2.543H54.785c1.6.681 1.493 1.888 1.352 2.384l-3.164 10.127c-.426.072-9.295 2.288-4.331-13.256 1.053-3.323 4.07-9.436 8.941-10.628"/>
    </g>
</svg>
