<svg xmlns="http://www.w3.org/2000/svg" xmlns:xlink="http://www.w3.org/1999/xlink" width="102" height="29" viewBox="0 0 102 29">
    <defs>
        <path id="a" d="M.085 28.066h21.678V.009H.085z"/>
        <path id="c" d="M.085 28.066h21.678V.009H.085z"/>
    </defs>
    <g fill="none" fill-rule="evenodd" opacity=".15">
        <g transform="translate(3.253 .92)">
            <mask id="b" fill="#fff">
                <use xlink:href="#a"/>
            </mask>
            <path fill="#1C1C1C" fill-rule="nonzero" d="M15.124 1.737a2.529 2.529 0 0 0-3.18-1.605 2.495 2.495 0 0 0-1.621 3.15l6.527 19.894a2.53 2.53 0 0 0 3.07 1.55c1.34-.382 2.157-1.792 1.73-3.095L15.123 1.737" mask="url(#b)"/>
        </g>
        <g transform="translate(3.253 .92)">
            <mask id="d" fill="#fff">
                <use xlink:href="#c"/>
            </mask>
            <path fill="#1C1C1C" fill-rule="nonzero" d="M5.01 4.992a2.53 2.53 0 0 0-3.18-1.605 2.495 2.495 0 0 0-1.621 3.15l6.527 19.894a2.53 2.53 0 0 0 3.07 1.55c1.34-.382 2.157-1.791 1.73-3.095L5.01 4.992" mask="url(#d)"/>
        </g>
        <path fill="#1C1C1C" fill-rule="nonzero" d="M26.592 19.133a2.496 2.496 0 0 0 1.621-3.15 2.53 2.53 0 0 0-3.18-1.606L4.95 20.843a2.495 2.495 0 0 0-1.565 3.041c.386 1.328 1.809 2.137 3.125 1.713l20.082-6.464"/>
        <path fill="#1C1C1C" fill-rule="nonzero" d="M9.136 24.752l4.8-1.545-1.56-4.755-4.8 1.546 1.56 4.754"/>
        <g fill="#1C1C1C" fill-rule="nonzero">
            <path d="M19.25 21.497l4.8-1.545-1.56-4.756-4.8 1.545 1.56 4.756M23.306 9.115a2.496 2.496 0 0 0 1.621-3.151 2.53 2.53 0 0 0-3.18-1.605L1.663 10.824A2.495 2.495 0 0 0 .1 13.866c.386 1.327 1.809 2.136 3.125 1.713l20.082-6.464"/>
        </g>
        <path fill="#1C1C1C" fill-rule="nonzero" d="M5.849 14.734l4.8-1.545-1.56-4.756-4.8 1.546 1.56 4.755M15.962 11.478l4.801-1.545-1.56-4.756-4.8 1.546 1.56 4.755M46.963 7.894c.888.384.953.672.258 1.984-.71 1.343-.888 1.423-1.76 1.071-1.098-.463-2.503-.815-3.407-.815-1.485 0-2.47.527-2.47 1.327 0 2.64 8.51 1.216 8.51 6.847 0 2.83-2.455 4.718-6.137 4.718-1.937 0-4.328-.64-5.975-1.471-.823-.416-.871-.656-.161-2 .614-1.183.807-1.311 1.695-.943 1.405.607 3.182 1.071 4.377 1.071 1.356 0 2.26-.544 2.26-1.343 0-2.56-8.655-1.344-8.655-6.799 0-2.895 2.438-4.83 6.088-4.83 1.711 0 3.875.511 5.377 1.183M53.827 1.208v20.987c0 .32-.34.655-.824.655h-2.228c-.485 0-.824-.335-.824-.655V1.208c0-1.04.29-1.136 1.938-1.136 1.873 0 1.938.128 1.938 1.136M59.398 18.244c0 1.071.92 1.791 2.309 1.791 1.68 0 3.197-.8 4.085-2.16v-1.407a8.68 8.68 0 0 0-2.939-.528c-2.067 0-3.455.976-3.455 2.304zm10.27-5.231v9.038c0 .48-.34.816-.824.816h-2.196c-.5 0-.856-.369-.823-.864l.032-.976c-1.195 1.312-2.907 2-4.618 2-3.327 0-5.555-1.904-5.555-4.751 0-3.024 2.519-5.055 6.297-5.071 1.438 0 2.746.256 3.811.688v-1.04c0-1.664-1.324-2.655-3.568-2.655-1.05 0-2.342.416-3.375 1.007-.792.448-.985.416-1.841-.847-.84-1.264-.808-1.504 0-2.016 1.55-.992 3.65-1.632 5.587-1.632 4.344 0 7.073 2.336 7.073 6.303z"/>
        <g fill="#1C1C1C" fill-rule="nonzero">
            <path d="M84.783 7.926c.808.464.84.72-.048 2.08-.84 1.28-.985 1.36-1.873.911-.679-.352-1.76-.655-2.649-.655-2.793 0-4.65 1.823-4.65 4.574 0 2.864 1.857 4.783 4.65 4.783.97 0 2.18-.368 2.972-.8.807-.463.985-.431 1.84.8.776 1.152.76 1.424.065 1.904-1.243.848-3.213 1.503-4.941 1.503-5.167 0-8.623-3.279-8.623-8.19 0-4.878 3.456-8.126 8.655-8.126 1.583 0 3.44.528 4.602 1.216M101.642 20.867c.646.816.388 1.104-1.227 1.68-1.647.591-1.873.56-2.454-.192l-4.619-6.11-2.067 1.983v3.967c0 .32-.339.655-.823.655h-2.229c-.484 0-.823-.335-.823-.655V1.208c0-1.04.29-1.136 1.938-1.136 1.873 0 1.937.128 1.937 1.136V13.14l6.33-6.015c.695-.656 1.082-.607 2.326.208 1.372.88 1.47 1.12.807 1.76l-4.715 4.543 5.62 7.23"/>
        </g>
    </g>
</svg>
