<svg xmlns="http://www.w3.org/2000/svg" width="80" height="33" viewBox="0 0 80 33">
    <path fill="#1C1C1C" fill-rule="nonzero" d="M5.644 12.496c0-.848.714-1.174 1.897-1.174 1.695 0 3.837.5 5.532 1.392V7.601C11.222 6.883 9.393 6.6 7.541 6.6 3.01 6.6 0 8.906 0 12.758c0 6.005 8.478 5.048 8.478 7.637 0 1-.893 1.327-2.142 1.327-1.852 0-4.217-.74-6.09-1.74v5.178c2.074.87 4.171 1.24 6.09 1.24 4.64 0 7.83-2.241 7.83-6.136-.022-6.484-8.522-5.33-8.522-7.768zM20.645 2.475l-5.622 1.16L15 21.494c0 3.3 2.558 5.73 5.968 5.73 1.89 0 3.272-.334 4.032-.736v-4.526c-.737.29-4.378 1.315-4.378-1.985v-7.915H25v-4.75h-4.378l.023-4.838zM31.94 9.311l-.363-1.655h-4.91v19.569h5.683V13.963c1.34-1.722 3.613-1.409 4.318-1.163V7.656c-.728-.268-3.387-.76-4.728 1.655zM37.5 7.425h5.833V26.4H37.5V7.425zm0-1.65l5.833-1.213V0L37.5 1.191v4.584zm17.25.825c-2.227 0-3.66 1.027-4.455 1.742L50 6.957h-5V33l5.682-1.184.023-6.32c.818.58 2.022 1.407 4.022 1.407 4.068 0 7.773-3.217 7.773-10.297C62.477 10.13 58.727 6.6 54.75 6.6zm-1.374 14.85c-1.26 0-2.009-.445-2.521-.996l-.022-7.865c.556-.615 1.325-1.039 2.543-1.039 1.945 0 3.29 2.162 3.29 4.94 0 2.84-1.324 4.96-3.29 4.96zM80 16.576C80 11 77.218 6.6 71.902 6.6c-5.339 0-8.569 4.4-8.569 9.933 0 6.556 3.814 9.867 9.287 9.867 2.67 0 4.688-.588 6.213-1.416v-4.356c-1.525.74-3.274 1.198-5.495 1.198-2.176 0-4.105-.74-4.352-3.311h10.97c0-.283.044-1.416.044-1.939zM69.167 14.85c0-2.33 1.56-3.3 2.984-3.3 1.38 0 2.849.97 2.849 3.3h-5.833z" opacity=".15"/>
</svg>
