<svg xmlns="http://www.w3.org/2000/svg" width="86" height="18" viewBox="0 0 86 18">
    <g fill="#000" fill-rule="nonzero" opacity=".15">
        <path d="M13.518.433v9.89c0 3.304-1.462 4.675-4.89 4.675-3.43 0-4.892-1.371-4.892-4.674V0H.433C.145 0 0 .145 0 .433v10.053c0 5.523 3.52 7.454 8.627 7.454 5.108 0 8.627-1.93 8.627-7.454V0h-3.303c-.288 0-.433.145-.433.433M61.398 2.87c.271 0 .397-.09.488-.29l.956-2.364c.055-.144 0-.216-.144-.216H49.396c-1.245 0-1.714.379-1.714 1.227v15.36c0 .722.36 1.047 1.317 1.047h12.4c.27 0 .396-.09.487-.29l.956-2.364c.055-.144 0-.216-.144-.216H51.346V11.64c0-1.083.595-1.57 2.201-1.57h4.928c.27 0 .396-.09.487-.288l.92-2.275c.054-.144 0-.216-.144-.216h-8.392V2.87h10.052M34.517 14.8h-6.518v-3.23c0-1.084.596-1.571 2.202-1.571h4.316c2.075 0 2.653.794 2.653 2.419 0 1.624-.578 2.382-2.653 2.382zM27.999 2.834h5.832c1.949 0 2.49.734 2.49 2.256 0 1.522-.541 2.256-2.49 2.256h-5.832V2.834zm9.983 5.504c1.444-.758 2.04-2.183 2.04-3.862C40.021.578 36.844 0 33.56 0h-7.508c-1.246 0-1.715.379-1.715 1.227v15.36c0 .722.361 1.047 1.318 1.047h9.24c3.484 0 5.974-1.354 5.974-4.874 0-2.111-.902-3.898-2.887-4.422zM79.004 8.176h-6.137V2.834h6.137c2.292 0 2.797.884 2.797 2.67 0 1.806-.505 2.672-2.797 2.672zm6.894 9.15l-3.952-6.786c1.967-.505 3.555-1.804 3.555-5.107C85.501 1.155 82.848 0 78.462 0h-7.544c-1.245 0-1.715.379-1.715 1.227V17.2c0 .289.145.434.434.434h3.23V12.49c0-1.083.596-1.57 2.202-1.57h3.249l3.573 6.425c.109.18.217.289.488.289h3.357c.235 0 .235-.2.162-.307z"/>
    </g>
</svg>
